<?xml version="1.0" encoding="UTF-8" standalone="no"?>
<!-- Created with Inkscape (http://www.inkscape.org/) -->

<svg
   width="210mm"
   height="297mm"
   viewBox="0 0 210 297"
   version="1.1"
   id="svg5"
   xml:space="preserve"
   inkscape:export-filename="47chern.svg"
   inkscape:export-xdpi="96"
   inkscape:export-ydpi="96"
   xmlns:inkscape="http://www.inkscape.org/namespaces/inkscape"
   xmlns:sodipodi="http://sodipodi.sourceforge.net/DTD/sodipodi-0.dtd"
   xmlns="http://www.w3.org/2000/svg"
   xmlns:svg="http://www.w3.org/2000/svg"><sodipodi:namedview
     id="namedview7"
     pagecolor="#ffffff"
     bordercolor="#000000"
     borderopacity="0.25"
     inkscape:showpageshadow="2"
     inkscape:pageopacity="0.0"
     inkscape:pagecheckerboard="0"
     inkscape:deskcolor="#d1d1d1"
     inkscape:document-units="mm"
     showgrid="false" /><defs
     id="defs2" /><g
     inkscape:label="Слой 1"
     inkscape:groupmode="layer"
     id="layer1"><g
       style="fill:#ffffff"
       id="g1650"
       transform="matrix(0.26458333,0,0,0.26458333,64.741531,120.12063)"><g
         opacity="0.6"
         id="g1637"
         style="fill:#ffffff"><path
           d="m 28.0797,7.59999 c 0,-1.54274 1.2552,-2.7933 2.8037,-2.7933 1.5486,0 2.8038,1.25056 2.8038,2.7933 0,0.18204 -0.0181,0.35986 -0.0514,0.5322 h 1.834 c 0,0 0.7217,-1.79414 0.4811,-3.36408 C 35.7103,3.19817 21.4903,2.15158 21.4903,2.15158 L 17.5444,0.343426 C 17.0276,0.1066 16.4637,-0.0105568 15.895,7.46723e-4 L 10.0281,0.117116 C 9.49636,0.127684 8.9727,0.249159 8.49092,0.47371 L 6.81595,1.25446 1.60377,2.67483 0.240597,3.94572 0.481193,4.61854 0,5.21662 1.04248,7.3098 3.25557,8.01909 C 3.2346,7.88037 3.22406,7.74028 3.22404,7.59999 c 0,-1.54274 1.25535,-2.7933 2.80378,-2.7933 1.54854,0 2.80379,1.25056 2.80379,2.7933 0,0.18204 -0.01809,0.35986 -0.05142,0.5322 H 28.1311 C 28.097,7.95683 28.0797,7.77862 28.0797,7.59999 Z M 12.368,3.01824 10.4672,2.95542 10.4788,2.60758 12.3795,2.6704 Z M 9.9672,2.07369 C 9.92634,2.07215 9.88636,2.06135 9.85033,2.0421 9.81429,2.02285 9.78314,1.99566 9.75924,1.96261 9.73534,1.92955 9.71934,1.8915 9.71243,1.85134 9.70553,1.81119 9.70791,1.77 9.71941,1.7309 L 9.98328,0.832727 C 9.99935,0.778032 10.0325,0.729872 10.078,0.695255 10.1234,0.660637 10.1787,0.641369 10.2359,0.640253 l 5.6697,-0.112469 c 0.489,-0.010511 0.9739,0.090213 1.4179,0.294508 l 3.6323,1.664488 z"
           fill="#000000"
           id="path1629"
           style="fill:#ffffff" /><path
           d="M 8.43696,7.59998 C 8.43696,7.52493 8.43316,7.45083 8.42638,7.37767 8.3137,6.15642 7.28329,5.19985 6.02814,5.19985 4.77268,5.19985 3.74216,6.15632 3.62958,7.37767 3.62251,7.45157 3.61891,7.52575 3.61879,7.59998 3.61879,8.92537 4.69735,10 6.02814,10 7.35851,10 8.43696,8.92548 8.43696,7.59998 Z M 6.02814,9.15811 c -0.86251,0 -1.56419,-0.69895 -1.56419,-1.55813 0,-0.04554 0.00232,-0.09286 0.00719,-0.14494 0.07427,-0.80584 0.74359,-1.41319 1.55711,-1.41319 0.8132,0 1.48251,0.60746 1.55679,1.41298 0.00465,0.05081 0.00687,0.09856 0.00687,0.14515 -1e-4,0.85918 -0.70147,1.55813 -1.56377,1.55813 z"
           fill="#000000"
           id="path1631"
           style="fill:#ffffff" /><path
           d="M 6.74686,7.59998 C 6.74686,7.57921 6.7457,7.55655 6.74348,7.53189 6.70941,7.16233 6.40184,6.88374 6.02814,6.88374 5.84881,6.88276 5.67568,6.949 5.5431,7.0693 5.41052,7.18961 5.32821,7.35518 5.31249,7.53315 5.31023,7.55539 5.30903,7.57773 5.30889,7.60008 c 0,0.39497 0.3227,0.71625 0.71915,0.71625 C 6.21863,8.31605 6.40134,8.24048 6.53609,8.10619 6.67084,7.97191 6.74664,7.78986 6.74686,7.59998 Z m 26.54564,0 c 0,-0.07505 -0.0038,-0.14915 -0.0106,-0.22231 -0.1127,-1.22125 -1.1431,-2.17782 -2.3982,-2.17782 -1.2555,0 -2.286,0.95647 -2.3986,2.17782 -0.007,0.0739 -0.0106,0.14808 -0.0108,0.22231 0,1.32539 1.0786,2.40002 2.4094,2.40002 1.3303,0 2.4088,-1.07452 2.4088,-2.40002 z m -2.4088,1.55813 c -0.8626,0 -1.5642,-0.69895 -1.5642,-1.55813 0,-0.04554 0.0023,-0.09286 0.0072,-0.14494 0.0742,-0.80584 0.7435,-1.41319 1.5571,-1.41319 0.8132,0 1.4824,0.60746 1.5568,1.41298 0.0046,0.05081 0.0069,0.09856 0.0069,0.14515 -10e-5,0.85918 -0.7015,1.55813 -1.5638,1.55813 z"
           fill="#000000"
           id="path1633"
           style="fill:#ffffff" /><path
           d="M 31.6024,7.59998 C 31.6024,7.57921 31.6012,7.55655 31.599,7.53189 31.5649,7.16233 31.2574,6.88374 30.8837,6.88374 30.7043,6.88276 30.5312,6.949 30.3986,7.0693 30.266,7.18961 30.1837,7.35518 30.168,7.53315 c -0.0023,0.02224 -0.0035,0.04458 -0.0036,0.06693 0,0.39497 0.3227,0.71625 0.7192,0.71625 0.1905,-2.8e-4 0.3733,-0.07585 0.508,-0.21014 0.1348,-0.13428 0.2106,-0.31633 0.2108,-0.50621 z"
           fill="#000000"
           id="path1635"
           style="fill:#ffffff" /></g></g></g></svg>
