<?xml version="1.0" encoding="UTF-8" standalone="no"?>
<!-- Created with Inkscape (http://www.inkscape.org/) -->

<svg
   width="210mm"
   height="297mm"
   viewBox="0 0 210 297"
   version="1.1"
   id="svg5"
   xml:space="preserve"
   xmlns:inkscape="http://www.inkscape.org/namespaces/inkscape"
   xmlns:sodipodi="http://sodipodi.sourceforge.net/DTD/sodipodi-0.dtd"
   xmlns="http://www.w3.org/2000/svg"
   xmlns:svg="http://www.w3.org/2000/svg"><sodipodi:namedview
     id="namedview7"
     pagecolor="#ffffff"
     bordercolor="#000000"
     borderopacity="0.25"
     inkscape:showpageshadow="2"
     inkscape:pageopacity="0.0"
     inkscape:pagecheckerboard="0"
     inkscape:deskcolor="#d1d1d1"
     inkscape:document-units="mm"
     showgrid="false" /><defs
     id="defs2" /><g
     inkscape:label="Слой 1"
     inkscape:groupmode="layer"
     id="layer1"><g
       style="fill:#000000;fill-opacity:1"
       id="g203"
       transform="matrix(0.26458333,0,0,0.26458333,68.773183,120.47702)"><g
         opacity="0.6"
         id="g190"
         style="fill:#000000;fill-opacity:1"><path
           d="M 0.318763,9.30526 1.67055,9.33846 C 1.6467,9.49303 1.63473,9.64913 1.63473,9.80546 V 10.0845 H 2.20331 V 9.80546 c 0,-1.40826 1.16728,-2.55395 2.60208,-2.55395 1.4348,0 2.60209,1.14569 2.60209,2.55395 V 10.0845 H 7.97605 V 9.80546 c 0,-0.10547 -0.00549,-0.20973 -0.01601,-0.3126 l 13.54916,0.3326 v 0.25904 h 0.5686 V 9.80546 c 0,-1.40826 1.1673,-2.55395 2.6021,-2.55395 1.4348,0 2.6021,1.14569 2.6021,2.55395 v 0.27904 h 0.5686 V 9.98116 l 1.7919,0.04404 c 0.4501,0.011 0.4888,-1.50411 0.0385,-1.51518 l -0.0258,-6.5e-4 0.296,-1.94436 C 29.9734,6.43405 29.9576,6.29959 29.9056,6.17703 29.8536,6.05447 29.7675,5.94876 29.6572,5.87199 L 29.1636,5.52888 c 0,0 -0.745,-1.10216 -1.0151,-1.1455 L 21.7934,2.9301 C 21.6094,2.90062 21.4328,2.83691 21.2731,2.74241 L 18.1085,0.869755 C 17.1421,0.297841 16.0344,-0.00297977 14.9059,2.22507e-5 L 3.52306,0.0305294 C 3.50002,0.0306106 3.47728,0.0356591 3.45645,0.0453179 L 3.15813,0.183995 C 3.03058,0.243335 3.04177,0.424983 3.17566,0.46879 3.29412,0.507575 3.32103,0.660111 3.22267,0.735728 L 0.807643,2.59211 C 0.703937,2.67182 0.621413,2.77497 0.567109,2.89276 0.512805,3.01055 0.488333,3.13948 0.49578,3.26856 L 0.57936,4.7184 0.480523,4.78118 C 0.326443,4.87902 0.202829,5.01667 0.123268,5.17898 0.0437067,5.3413 0.0112787,5.522 0.0295478,5.70123 L 0.228075,7.8358 C -0.0951597,8.08544 -0.0835039,9.2954 0.318763,9.30526 Z M 13.1709,4.44393 13.1833,4.13709 14.8853,4.20303 14.873,4.50987 Z M 5.80845,4.16657 5.82077,3.85973 7.5228,3.92568 7.51048,4.23252 Z M 5.42902,3.16495 5.63305,0.583006 11.7768,0.566543 12.003,3.42956 Z M 14.9227,0.55808 c 1.0193,4e-5 2.0193,0.273027 2.8923,0.78956 l 2.611,1.54517 0.3217,0.59842 C 20.6996,3.57642 20.6284,3.64684 20.5419,3.69463 20.4555,3.74242 20.3572,3.76571 20.258,3.76189 L 12.8263,3.46277 12.3112,0.565148 Z M 3.57319,1.1751 C 3.66357,1.10579 3.73588,1.01639 3.78415,0.914276 3.83243,0.812157 3.85529,0.700241 3.85085,0.58775 L 5.0965,0.584401 4.64335,3.13333 2.49878,3.04702 C 2.39439,3.04299 2.29349,3.00909 2.20848,2.9495 2.12347,2.88991 2.05807,2.80723 2.02032,2.71162 L 1.91646,2.44859 Z"
           fill="#ffffff"
           id="path182"
           style="fill:#000000;fill-opacity:1" /><path
           d="m 4.8056,7.61097 c -1.1652,0 -2.12164,0.87457 -2.22616,1.99134 C 2.57288,9.66986 2.56953,9.73767 2.56939,9.80553 2.56939,11.0174 3.57037,12 4.8055,12 6.04026,12 7.04114,11.0174 7.04114,9.80553 7.04114,9.73689 7.03754,9.66918 7.03138,9.60231 6.92695,8.48554 5.97061,7.61097 4.8056,7.61097 Z m 0,3.61923 c -0.80056,0 -1.45176,-0.6392 -1.45176,-1.42476 0,-0.04158 0.00218,-0.08492 0.00663,-0.13254 0.06889,-0.73682 0.69016,-1.29218 1.44513,-1.29218 0.75469,0 1.37586,0.55545 1.44494,1.292 0.00426,0.0465 0.00644,0.09012 0.00644,0.13272 0,0.78566 -0.65102,1.42476 -1.45138,1.42476 z"
           fill="#ffffff"
           id="path184"
           style="fill:#000000;fill-opacity:1" /><path
           d="M 4.8056,9.15047 C 4.63917,9.14956 4.47847,9.21012 4.35543,9.32012 4.23238,9.43012 4.15599,9.58151 4.14141,9.74424 4.13936,9.76458 4.13825,9.785 4.13809,9.80544 c 0,0.36116 0.29945,0.65496 0.66751,0.65496 0.36777,0 0.66703,-0.2938 0.66703,-0.65496 0,-0.01897 -0.00104,-0.03972 -0.00312,-0.06232 C 5.43785,9.40531 5.15243,9.15047 4.8056,9.15047 Z m 22.1103,0.65497 c 0,-0.06864 -0.0035,-0.13635 -0.0098,-0.20323 -0.1046,-1.11667 -1.0609,-1.99133 -2.2259,-1.99133 -1.1652,0 -2.1216,0.87457 -2.2261,1.99133 -0.0066,0.06756 -0.0099,0.13537 -0.0101,0.20323 0,1.21196 1.001,2.19446 2.2361,2.19446 1.2349,10e-5 2.2358,-0.9825 2.2358,-2.19446 z m -2.2357,1.42476 c -0.8005,0 -1.4517,-0.6392 -1.4517,-1.42476 0,-0.04158 0.0022,-0.08492 0.0066,-0.13254 0.0689,-0.73682 0.6902,-1.29218 1.4451,-1.29218 0.7548,0 1.376,0.55545 1.445,1.292 0.0042,0.0465 0.0064,0.09012 0.0064,0.13272 -10e-5,0.78566 -0.6511,1.42476 -1.4514,1.42476 z"
           fill="#ffffff"
           id="path186"
           style="fill:#000000;fill-opacity:1" /><path
           d="m 25.3473,9.80544 c 0,-0.01897 -0.0011,-0.03972 -0.0031,-0.06232 -0.0317,-0.3379 -0.3171,-0.59265 -0.664,-0.59265 -0.1664,-9.1e-4 -0.3271,0.05965 -0.4501,0.16965 -0.1231,0.11 -0.1995,0.26139 -0.214,0.42412 -0.0021,0.02034 -0.0032,0.04076 -0.0034,0.0612 0,0.36116 0.2995,0.65496 0.6675,0.65496 0.3678,0 0.6671,-0.2938 0.6671,-0.65496 z"
           fill="#ffffff"
           id="path188"
           style="fill:#000000;fill-opacity:1" /></g></g></g></svg>
