<?xml version="1.0" encoding="UTF-8" standalone="no"?>
<!-- Created with Inkscape (http://www.inkscape.org/) -->

<svg
   width="210mm"
   height="297mm"
   viewBox="0 0 210 297"
   version="1.1"
   id="svg5"
   xml:space="preserve"
   inkscape:export-filename="48 (1) beli.svg"
   inkscape:export-xdpi="96"
   inkscape:export-ydpi="96"
   xmlns:inkscape="http://www.inkscape.org/namespaces/inkscape"
   xmlns:sodipodi="http://sodipodi.sourceforge.net/DTD/sodipodi-0.dtd"
   xmlns="http://www.w3.org/2000/svg"
   xmlns:svg="http://www.w3.org/2000/svg"><sodipodi:namedview
     id="namedview7"
     pagecolor="#ffffff"
     bordercolor="#000000"
     borderopacity="0.25"
     inkscape:showpageshadow="2"
     inkscape:pageopacity="0.0"
     inkscape:pagecheckerboard="0"
     inkscape:deskcolor="#d1d1d1"
     inkscape:document-units="mm"
     showgrid="false" /><defs
     id="defs2" /><g
     inkscape:label="Слой 1"
     inkscape:groupmode="layer"
     id="layer1"><g
       style="fill:#ffffff"
       id="g1833"
       transform="matrix(0.26458333,0,0,0.26458333,64.805748,121.18669)"><g
         opacity="0.6"
         id="g1820"
         style="fill:#ffffff"><path
           d="M 0.56053,8.36079 C 0.134448,8.70731 0.239385,9.68058 0.875135,9.71769 L 0.880324,9.74016 H 2.86044 V 10.0558 H 3.48321 V 9.73017 c 0,-1.43624 1.11747,-2.60463 2.4911,-2.60463 1.37363,0 2.4911,1.16839 2.4911,2.60463 V 10.0558 H 9.08818 V 9.74016 H 24.0333 v 0.31564 h 0.6228 V 9.73017 c 0,-1.43624 1.1175,-2.60463 2.4911,-2.60463 1.3736,0 2.4911,1.16839 2.4911,2.60463 v 0.32563 h 0.6228 V 9.74016 h 2.3477 l 0.0055,-0.06403 c 0.4726,-0.19839 0.5108,-1.0258 0.115,-1.32652 L 32.7745,7.82836 32.137,6.45876 C 29.1621,4.4342 23.5361,3.62242 23.5361,3.62242 L 19.6526,1.08714 C 19.0289,0.679968 18.3171,0.443875 17.5829,0.400708 L 10.9105,0.0084935 C 10.0917,-0.0425051 9.27476,0.136851 8.54471,0.5279 L 5.24151,2.95672 C 5.07298,3.08064 4.87532,3.15414 4.66981,3.16932 L 1.46469,3.6883 C 1.21699,3.71767 0.981622,3.81704 0.783865,3.97574 0.586108,4.13444 0.433436,4.34648 0.342247,4.58906 L 0.0951092,5.24652 c -0.10327515,0.27474 -0.122993,0.57611 -0.0564649,0.863 z M 8.52997,4.55162 6.66466,4.51016 6.67192,4.15192 8.53724,4.19338 Z m 8.06863,0.16995 -1.8653,-0.04145 0.0073,-0.35825 1.8653,0.04146 z m 2.7793,-3.17417 2.9778,1.94403 -0.074,0.15953 C 22.2453,3.72933 22.1881,3.79503 22.1168,3.84016 22.0456,3.8853 21.9633,3.90793 21.8801,3.90535 L 14.2822,3.67061 13.8788,0.726395 17.5539,0.942471 c 0.647,0.037955 1.2743,0.246019 1.824,0.604929 z M 6.08018,3.00349 8.81292,0.994129 C 9.37954,0.697883 10.0042,0.543295 10.6378,0.542552 c 0.0803,0 0.1618,0.002496 0.2421,0.007596 L 13.2649,0.690364 13.3584,3.64217 6.20007,3.421 C 5.98895,3.41448 5.90736,3.13058 6.08018,3.00349 Z"
           fill="#000000"
           id="path1812"
           style="fill:#ffffff" /><path
           d="M 8.1453,9.73017 C 8.1453,9.6592 8.14188,9.58909 8.13586,9.51996 8.03435,8.36491 7.10579,7.46034 5.97462,7.46034 4.84335,7.46034 3.91469,8.36502 3.81318,9.51996 3.80683,9.58983 3.80357,9.65998 3.80342,9.73017 3.80342,10.9837 4.77536,12 5.97452,12 7.17346,12 8.1453,10.9838 8.1453,9.73017 Z M 5.97462,11.2039 c -0.77722,0 -1.40965,-0.6611 -1.40965,-1.47362 0,-0.04308 0.00208,-0.0879 0.00644,-0.13707 0.06694,-0.76207 0.6701,-1.3365 1.40311,-1.3365 0.7328,0 1.33595,0.57454 1.4029,1.33629 0.00415,0.04807 0.00623,0.09322 0.00623,0.13728 10e-5,0.81242 -0.63201,1.47362 -1.40903,1.47362 z"
           fill="#000000"
           id="path1814"
           style="fill:#ffffff" /><path
           d="M 6.6222,9.73017 C 6.6222,9.71053 6.62117,9.68904 6.61919,9.66571 6.60485,9.49763 6.53063,9.34131 6.41124,9.22776 6.29185,9.11421 6.13601,9.0517 5.97462,9.05264 5.81303,9.05169 5.657,9.11433 5.53753,9.2281 5.41806,9.34188 5.34388,9.49848 5.32974,9.66679 5.32772,9.68782 5.32665,9.70893 5.32652,9.73006 5.32674,9.90969 5.3951,10.0819 5.5166,10.2089 c 0.1215,0.127 0.28622,0.1984 0.45802,0.1986 0.17173,-2e-4 0.33636,-0.0716 0.45777,-0.1986 C 6.5538,10.0819 6.62207,9.90973 6.6222,9.73017 Z m 22.6959,0 c 0,-0.07097 -0.0034,-0.14108 -0.0095,-0.21021 -0.1015,-1.15505 -1.03,-2.05962 -2.1612,-2.05962 -1.1313,0 -2.0599,0.90468 -2.1614,2.05962 -0.0064,0.06987 -0.0096,0.14002 -0.0098,0.21021 0,1.25353 0.9719,2.26983 2.1711,2.26983 1.1991,0 2.1708,-1.0162 2.1708,-2.26983 z m -2.1707,1.47373 c -0.7772,0 -1.4096,-0.6611 -1.4096,-1.47362 0,-0.04308 0.002,-0.0879 0.0064,-0.13707 0.0669,-0.76207 0.6701,-1.3365 1.4031,-1.3365 0.7328,0 1.336,0.57454 1.4029,1.33629 0.0042,0.04807 0.0062,0.09322 0.0062,0.13728 10e-5,0.81242 -0.6319,1.47362 -1.409,1.47362 z"
           fill="#000000"
           id="path1816"
           style="fill:#ffffff" /><path
           d="m 27.7951,9.73017 c 0,-0.01964 -0.001,-0.04113 -0.003,-0.06446 C 27.7777,9.49762 27.7035,9.34131 27.5841,9.22776 27.4647,9.1142 27.3089,9.0517 27.1475,9.05264 26.9859,9.05169 26.8299,9.11433 26.7104,9.2281 c -0.1195,0.11378 -0.1936,0.27038 -0.2078,0.43869 -0.002,0.02103 -0.0031,0.04214 -0.0032,0.06327 2e-4,0.17963 0.0686,0.35184 0.1901,0.47884 0.1215,0.127 0.2862,0.1984 0.458,0.1986 0.1717,-2e-4 0.3364,-0.0716 0.4578,-0.1986 0.1214,-0.127 0.1897,-0.29917 0.1898,-0.47873 z"
           fill="#000000"
           id="path1818"
           style="fill:#ffffff" /></g></g></g></svg>
