<?xml version="1.0" encoding="UTF-8" standalone="no"?>
<!-- Created with Inkscape (http://www.inkscape.org/) -->

<svg
   width="210mm"
   height="297mm"
   viewBox="0 0 210 297"
   version="1.1"
   id="svg5"
   xml:space="preserve"
   inkscape:export-filename="48 beli.svg"
   inkscape:export-xdpi="96"
   inkscape:export-ydpi="96"
   xmlns:inkscape="http://www.inkscape.org/namespaces/inkscape"
   xmlns:sodipodi="http://sodipodi.sourceforge.net/DTD/sodipodi-0.dtd"
   xmlns="http://www.w3.org/2000/svg"
   xmlns:svg="http://www.w3.org/2000/svg"><sodipodi:namedview
     id="namedview7"
     pagecolor="#ffffff"
     bordercolor="#000000"
     borderopacity="0.25"
     inkscape:showpageshadow="2"
     inkscape:pageopacity="0.0"
     inkscape:pagecheckerboard="0"
     inkscape:deskcolor="#d1d1d1"
     inkscape:document-units="mm"
     showgrid="false" /><defs
     id="defs2" /><g
     inkscape:label="Слой 1"
     inkscape:groupmode="layer"
     id="layer1"><g
       style="fill:#ffffff"
       id="g1774"
       transform="matrix(0.26458333,0,0,0.26458333,63.534913,120.18716)"><g
         opacity="0.6"
         id="g1761"
         style="fill:#ffffff"><path
           d="M 52.7134,6.23773 H 52.5666 C 52.5211,4.99921 52.3463,3.01897 51.6942,2.94238 V 2.76955 c 0.0013,0 0.0025,6.2e-4 0.0037,6.2e-4 0.1141,0 0.1141,-0.72365 0,-0.72365 -0.114,0 -0.2065,0.16198 -0.2065,0.36178 0,0.12338 0.0354,0.23205 0.0893,0.29736 V 2.93921 C 50.7402,2.93004 47.9443,2.78048 46.3104,2.70187 45.6724,2.6712 44.7447,2.45765 44.2088,2.08318 L 42.2254,0.621948 C 41.6445,0.216013 40.9669,6.59356e-6 40.2746,0 H 9.70531 C 9.41106,0 9.1209,0.0729734 8.85699,0.21328 7.9789,0.680116 5.17146,2.02254 4.16902,2.44196 3.93067,2.54167 3.68266,2.61212 3.42968,2.65198 L 1.01035,3.13292 C 0.84722,3.15865 0.697804,3.24581 0.588588,3.37894 0.479371,3.51208 0.417408,3.6826 0.413679,3.86028 L 0.363561,6.23773 H 0.286544 c -0.3820586,0 -0.3820586,1.49745 0,1.49745 H 2.83725 C 2.83684,7.7573 2.8357,7.77925 2.8357,7.80146 V 8.06585 H 3.32625 V 7.80146 c 0,-1.41928 1.07112,-2.57382 2.38777,-2.57382 1.31656,0 2.38768,1.15462 2.38768,2.57382 V 8.06585 H 8.59225 V 7.80146 C 8.59225,7.77925 8.59111,7.7573 8.5907,7.73518 H 45.1296 C 45.1292,7.7573 45.128,7.77925 45.128,7.80146 v 0.26439 h 0.4906 V 7.80146 c 0,-1.41928 1.0711,-2.57382 2.3877,-2.57382 1.3166,0 2.3877,1.15462 2.3877,2.57382 v 0.26439 h 0.4906 V 7.80146 c 0,-0.02221 -0.0012,-0.04416 -0.0016,-0.06628 h 1.8306 c 0.3819,0 0.3819,-1.49745 -2e-4,-1.49745 z M 52.0608,5.85902 51.6239,4.85194 h 0.346 c 0.0386,0.30749 0.0698,0.64839 0.0909,1.00708 z m -0.45,-2.39076 c 0.1227,0.13044 0.235,0.54219 0.3205,1.10527 H 51.5032 L 51.0176,3.45434 c 0.2525,0.00811 0.4561,0.01304 0.5932,0.01392 z M 8.12999,3.51868 c 0,-0.10409 0.07898,-0.18922 0.17553,-0.18922 h 1.46651 c 0.09656,0 0.17554,0.08513 0.17554,0.18922 0,0.10408 -0.07898,0.18921 -0.17554,0.18921 H 8.30552 C 8.25901,3.70773 8.21445,3.68774 8.18157,3.65229 8.14868,3.61684 8.13014,3.56881 8.12999,3.51868 Z M 14.1312,2.81133 14.3745,0.687431 h 21.0269 l 0.2433,2.123899 z m 24.024,0.70735 c 0,-0.10409 0.079,-0.18922 0.1756,-0.18922 h 1.4665 c 0.0965,0 0.1755,0.08513 0.1755,0.18922 0,0.10408 -0.079,0.18921 -0.1755,0.18921 H 38.3308 C 38.2843,3.70776 38.2397,3.68777 38.2068,3.65232 38.1739,3.61686 38.1554,3.56882 38.1552,3.51868 Z m 2.1194,-2.831249 c 0.5976,0 1.1825,0.186487 1.684,0.536809 l 1.6383,1.30268 c 0.1517,0.10599 0.3098,0.20097 0.4732,0.28432 H 36.2196 L 35.7581,0.687431 Z M 9.081,0.842455 C 9.27541,0.740013 9.48901,0.68698 9.7054,0.687431 h 4.3124 L 13.5563,2.81133 H 7.59766 C 7.27977,2.81133 6.9707,2.6987 6.71801,2.49079 L 6.6419,2.42822 C 7.52636,1.88805 8.43732,1.18309 9.081,0.842455 Z"
           fill="#000000"
           id="path1753"
           style="fill:#ffffff" /><path
           d="M 7.74457,7.59787 C 7.64916,6.47912 6.77679,5.60291 5.71409,5.60291 4.65123,5.60291 3.7787,6.47912 3.68337,7.59787 3.67756,7.66485 3.67421,7.73271 3.67421,7.80146 3.67421,9.01565 4.58738,10 5.71401,10 6.8404,10 7.7534,9.01556 7.7534,7.80146 7.75335,7.73348 7.75041,7.66555 7.74457,7.59787 Z M 5.71409,9.22884 c -0.73027,0 -1.32433,-0.64036 -1.32433,-1.42738 0,-0.04169 0.00197,-0.08514 0.00605,-0.13282 0.06288,-0.73819 0.62955,-1.29457 1.31828,-1.29457 0.68849,0 1.25508,0.55646 1.31803,1.29439 0.00393,0.04654 0.00589,0.09025 0.00589,0.133 0,0.78702 -0.59389,1.42738 -1.32392,1.42738 z"
           fill="#000000"
           id="path1755"
           style="fill:#ffffff" /><path
           d="M 5.71409,7.14531 C 5.56227,7.14442 5.41568,7.20509 5.30344,7.3153 5.19119,7.4255 5.12149,7.57717 5.10818,7.7402 5.10628,7.76059 5.10527,7.78106 5.10515,7.80154 c 0,0.36179 0.27316,0.65615 0.60894,0.65615 0.33554,0 0.60845,-0.29436 0.60845,-0.65615 0,-0.01903 -9.8e-4,-0.03983 -0.00286,-0.06239 C 6.2909,7.40054 6.0305,7.14531 5.71409,7.14531 Z M 50.0369,7.59787 C 49.9415,6.47912 49.0691,5.60291 48.0064,5.60291 c -1.0628,0 -1.9354,0.87621 -2.0307,1.99496 -0.0058,0.06698 -0.0092,0.13484 -0.0092,0.20359 0,1.21419 0.9132,2.19854 2.0398,2.19854 1.1264,0 2.0394,-0.98444 2.0394,-2.19854 0,-0.06798 -0.003,-0.13591 -0.0088,-0.20359 z m -2.0305,1.63097 c -0.7303,0 -1.3243,-0.64036 -1.3243,-1.42738 0,-0.04169 0.0019,-0.08514 0.006,-0.13282 0.0629,-0.73819 0.6297,-1.29457 1.3183,-1.29457 0.6885,0 1.2551,0.55646 1.3181,1.29439 0.0039,0.04654 0.0058,0.09025 0.0058,0.133 0,0.78702 -0.5939,1.42738 -1.3239,1.42738 z"
           fill="#000000"
           id="path1757"
           style="fill:#ffffff" /><path
           d="m 48.0064,7.14531 c -0.1518,-9e-4 -0.2984,0.05978 -0.4106,0.16999 -0.1123,0.1102 -0.182,0.26187 -0.1953,0.4249 -0.0019,0.02039 -0.0029,0.04086 -0.003,0.06134 0,0.36179 0.2731,0.65615 0.6089,0.65615 0.3356,0 0.6085,-0.29436 0.6085,-0.65615 0,-0.01903 -10e-4,-0.03983 -0.0029,-0.06239 C 48.5831,7.40054 48.3227,7.14531 48.0064,7.14531 Z"
           fill="#000000"
           id="path1759"
           style="fill:#ffffff" /></g></g></g></svg>
