<?xml version="1.0" encoding="UTF-8" standalone="no"?>
<!-- Created with Inkscape (http://www.inkscape.org/) -->

<svg
   width="210mm"
   height="297mm"
   viewBox="0 0 210 297"
   version="1.1"
   id="svg5"
   xml:space="preserve"
   inkscape:export-filename="47chern.svg"
   inkscape:export-xdpi="96"
   inkscape:export-ydpi="96"
   xmlns:inkscape="http://www.inkscape.org/namespaces/inkscape"
   xmlns:sodipodi="http://sodipodi.sourceforge.net/DTD/sodipodi-0.dtd"
   xmlns="http://www.w3.org/2000/svg"
   xmlns:svg="http://www.w3.org/2000/svg"><sodipodi:namedview
     id="namedview7"
     pagecolor="#ffffff"
     bordercolor="#000000"
     borderopacity="0.25"
     inkscape:showpageshadow="2"
     inkscape:pageopacity="0.0"
     inkscape:pagecheckerboard="0"
     inkscape:deskcolor="#d1d1d1"
     inkscape:document-units="mm"
     showgrid="false" /><defs
     id="defs2" /><g
     inkscape:label="Слой 1"
     inkscape:groupmode="layer"
     id="layer1"><g
       style="fill:#ffffff"
       id="g1712"
       transform="matrix(0.26458333,0,0,0.26458333,65.473387,120.43112)"><g
         opacity="0.6"
         id="g1698"
         style="fill:#ffffff"><path
           d="m 27.0478,7.4907 c 0,-1.6289 1.2708,-2.94941 2.8384,-2.94941 1.5677,0 2.8385,1.32051 2.8385,2.94941 0,0.39254 -0.0745,0.76679 -0.2084,1.10922 H 36 L 35.9186,8.17701 34.8989,7.30285 34.4691,5.00851 C 33.5667,4.25299 20.8934,0.16779 19.3754,0.104169 17.8027,0.0382054 15.8304,-0.0261961 14.7926,0.0108599 12.897,0.0786098 6.23741,1.90819 6.23741,1.90819 L 3.72141,2.20955 3.6227,1.69791 5.07442,1.8573 V 0.800085 L 0.0678866,0.250273 V 1.30771 L 1.36622,1.45035 1.60737,2.69965 0.428051,5.49972 0,5.97408 0.611517,8.59992 H 1.85421 C 1.71635,8.24767 1.64558,7.87096 1.64582,7.4907 c 0,-1.6289 1.27084,-2.94941 2.83846,-2.94941 1.56762,0 2.83845,1.32051 2.83845,2.94941 0,0.39254 -0.07444,0.76679 -0.20838,1.10922 H 27.2561 C 27.1183,8.24764 27.0476,7.87095 27.0478,7.4907 Z M 1.88364,2.42988 1.70168,1.48707 3.28735,1.66119 3.40056,2.24806 Z m 6.4473,5.69099 C 8.2841,8.12172 8.23757,8.11287 8.19406,8.09483 8.15056,8.0768 8.11094,8.04994 8.07753,8.01582 8.04412,7.98171 8.01759,7.94102 7.99947,7.89613 7.98136,7.85124 7.97203,7.80306 7.97203,7.75439 7.97203,7.70571 7.98136,7.65753 7.99947,7.61264 8.01759,7.56775 8.04412,7.52707 8.07753,7.49295 8.11094,7.45884 8.15056,7.43198 8.19406,7.41394 8.23757,7.3959 8.2841,7.38705 8.33094,7.3879 8.42341,7.38958 8.51155,7.42893 8.57638,7.49747 8.64121,7.56602 8.67753,7.65828 8.67753,7.75439 8.67753,7.85049 8.64121,7.94275 8.57638,8.0113 8.51155,8.07985 8.42341,8.1192 8.33094,8.12087 Z m 1.26181,0 C 9.54591,8.12172 9.49938,8.11287 9.45587,8.09483 9.41237,8.0768 9.37275,8.04994 9.33934,8.01582 9.30593,7.98171 9.2794,7.94102 9.26128,7.89613 9.24317,7.85124 9.23384,7.80306 9.23384,7.75439 9.23384,7.70571 9.24317,7.65753 9.26128,7.61264 9.2794,7.56775 9.30593,7.52707 9.33934,7.49295 9.37275,7.45884 9.41237,7.43198 9.45587,7.41394 9.49938,7.3959 9.54591,7.38705 9.59275,7.3879 9.68522,7.38958 9.77336,7.42893 9.83819,7.49747 9.90302,7.56602 9.93934,7.65828 9.93934,7.75439 9.93934,7.85049 9.90302,7.94275 9.83819,8.0113 9.77336,8.07985 9.68522,8.1192 9.59275,8.12087 Z M 14.0104,2.07528 13.6953,0.705771 c 0.4552,-0.07746 0.8403,-0.127352 1.1159,-0.137174 0.239,-0.007608 0.4782,-0.011106 0.7173,-0.010492 0.8845,0 2.2072,0.035828 3.8253,0.10369 0.5572,0.023327 2.7373,0.632185 5.2609,1.412595 L 25.0565,2.98337 14.2781,2.30867 C 14.2153,2.30475 14.1554,2.27995 14.1072,2.23792 14.059,2.1959 14.025,2.13887 14.0104,2.07528 Z M 17.3267,3.53877 14.8844,3.3978 14.6808,2.96072 17.693,3.17223 Z M 26.7192,3.08751 25.6166,3.01853 24.9895,2.1908 c 0.661,0.20614 1.321,0.41586 1.98,0.62917 l 0.1182,0.03828 -0.0236,0.04074 C 27.0286,2.96013 26.9778,3.01002 26.917,3.04325 26.8562,3.07648 26.7878,3.09179 26.7192,3.08751 Z"
           fill="#000000"
           id="path1688"
           style="fill:#ffffff" /><path
           d="m 6.89919,7.49069 c 0,-1.38358 -1.08328,-2.50921 -2.4148,-2.50921 -1.33153,0 -2.41492,1.12552 -2.41492,2.50921 C 2.06947,8.87426 3.15275,10 4.48428,10 5.8158,10 6.89919,8.87426 6.89919,7.49069 Z m -2.4148,1.88036 c -0.9979,0 -1.80974,-0.84358 -1.80974,-1.88048 0,-1.03689 0.81184,-1.88047 1.80974,-1.88047 0.99789,0 1.80973,0.84358 1.80973,1.88047 -1e-4,1.03701 -0.81184,1.88048 -1.80973,1.88048 z"
           fill="#000000"
           id="path1690"
           style="fill:#ffffff" /><path
           d="M 4.48439,8.32779 C 4.92932,8.32779 5.29,7.95301 5.29,7.49069 5.29,7.02836 4.92932,6.65358 4.48439,6.65358 c -0.44493,0 -0.80562,0.37478 -0.80562,0.83711 0,0.46232 0.36069,0.8371 0.80562,0.8371 z"
           fill="#000000"
           id="path1692"
           style="fill:#ffffff" /><path
           d="m 32.3012,7.49069 c 0,-1.38358 -1.0833,-2.50921 -2.4149,-2.50921 -1.3315,0 -2.4149,1.12563 -2.4149,2.50921 0,1.38357 1.0833,2.50931 2.4149,2.50931 1.3317,0 2.4149,-1.12574 2.4149,-2.50931 z m -2.415,1.88036 c -0.9979,0 -1.8097,-0.84358 -1.8097,-1.88048 0,-1.03689 0.8118,-1.88047 1.8097,-1.88047 0.9979,0 1.8098,0.84358 1.8098,1.88047 0,1.03701 -0.8118,1.88048 -1.8098,1.88048 z"
           fill="#000000"
           id="path1694"
           style="fill:#ffffff" /><path
           d="m 29.8862,8.32779 c 0.445,0 0.8057,-0.37478 0.8057,-0.8371 0,-0.46233 -0.3607,-0.83711 -0.8057,-0.83711 -0.4449,0 -0.8056,0.37478 -0.8056,0.83711 0,0.46232 0.3607,0.8371 0.8056,0.8371 z"
           fill="#000000"
           id="path1696"
           style="fill:#ffffff" /></g></g></g></svg>
