<svg width="28" height="28" viewBox="0 0 28 28" fill="none" xmlns="http://www.w3.org/2000/svg">
<g opacity="0.3" filter="url(#filter0_d_7826_131)">
<path d="M18.5892 11.9226L18.5817 11.9851C16.7492 11.0718 16.5575 10.9502 16.3208 11.3052C16.1567 11.551 15.6783 12.1085 15.5342 12.2735C15.3883 12.436 15.2433 12.4485 14.9958 12.336C14.7458 12.211 13.9433 11.9485 12.9933 11.0985C12.2533 10.436 11.7567 9.62352 11.61 9.37352C11.3658 8.95187 11.8767 8.89187 12.3417 8.01188C12.425 7.83689 12.3825 7.69939 12.3208 7.57522C12.2583 7.45023 11.7608 6.22525 11.5525 5.73692C11.3525 5.25027 11.1467 5.31193 10.9925 5.31193C10.5125 5.27027 10.1617 5.27693 9.8525 5.59859C8.5075 7.0769 8.84667 8.60187 9.9975 10.2235C12.2592 13.1835 13.4642 13.7284 15.6675 14.4851C16.2625 14.6743 16.805 14.6476 17.2342 14.5859C17.7125 14.5101 18.7067 13.9851 18.9142 13.3976C19.1267 12.8101 19.1267 12.3226 19.0642 12.2101C19.0025 12.0976 18.8392 12.0351 18.5892 11.9226Z" fill="white"/>
<path d="M21.1 2.87448C14.6925 -3.31958 4.08833 1.17284 4.08417 9.91101C4.08417 11.6576 4.54167 13.361 5.41333 14.8651L4 20L9.27917 18.6234C15.8667 22.1816 23.9967 17.4567 24 9.91601C24 7.2694 22.9667 4.77861 21.0875 2.90697L21.1 2.87448ZM22.335 9.88852C22.33 16.2492 15.3475 20.2217 9.825 16.9751L9.525 16.7967L6.4 17.6092L7.2375 14.5718L7.03833 14.2593C3.60167 8.78854 7.55 1.63866 14.06 1.63866C16.2717 1.63866 18.3475 2.50115 19.9108 4.06362C21.4733 5.61276 22.335 7.68856 22.335 9.88852Z" fill="white"/>
</g>
<defs>
<filter id="filter0_d_7826_131" x="0" y="0" width="28" height="28" filterUnits="userSpaceOnUse" color-interpolation-filters="sRGB">
<feFlood flood-opacity="0" result="BackgroundImageFix"/>
<feColorMatrix in="SourceAlpha" type="matrix" values="0 0 0 0 0 0 0 0 0 0 0 0 0 0 0 0 0 0 127 0" result="hardAlpha"/>
<feOffset dy="4"/>
<feGaussianBlur stdDeviation="2"/>
<feComposite in2="hardAlpha" operator="out"/>
<feColorMatrix type="matrix" values="0 0 0 0 0 0 0 0 0 0 0 0 0 0 0 0 0 0 0.25 0"/>
<feBlend mode="normal" in2="BackgroundImageFix" result="effect1_dropShadow_7826_131"/>
<feBlend mode="normal" in="SourceGraphic" in2="effect1_dropShadow_7826_131" result="shape"/>
</filter>
</defs>
</svg>
